<svg width="18" height="18" viewBox="0 0 18 18" fill="currentColor" xmlns="http://www.w3.org/2000/svg">
<path fill-rule="evenodd" clip-rule="evenodd" d="M1 1.99501C0.45 1.99501 0 1.54613 0 0.997506C0 0.448878 0.45 0 1 0H17C17.55 0 18 0.448878 18 0.997506C18 1.54613 17.55 1.99501 17 1.99501H1ZM1 5.98504H17C17.55 5.98504 18 5.53616 18 4.98753C18 4.4389 17.55 3.99003 17 3.99003H1C0.45 3.99003 0 4.4389 0 4.98753C0 5.53616 0.45 5.98504 1 5.98504ZM17 9.97506H1C0.45 9.97506 0 9.52619 0 8.97756C0 8.42893 0.45 7.98005 1 7.98005H17C17.55 7.98005 18 8.42893 18 8.97756C18 9.52619 17.55 9.97506 17 9.97506ZM1 13.9651H17C17.55 13.9651 18 13.5162 18 12.9676C18 12.419 17.55 11.9701 17 11.9701H1C0.45 11.9701 0 12.419 0 12.9676C0 13.5162 0.45 13.9651 1 13.9651ZM1 17.9551H17C17.55 17.9551 18 17.5062 18 16.9576C18 16.409 17.55 15.9601 17 15.9601H1C0.45 15.9601 0 16.409 0 16.9576C0 17.5062 0.45 17.9551 1 17.9551Z" />
</svg>
