<svg width="13" height="13" viewBox="0 0 13 13" fill="none" xmlns="http://www.w3.org/2000/svg">
<path fill-rule="evenodd" clip-rule="evenodd" d="M8.89778 0H4.10222C3.91444 0 3.72667 0.0794444 3.59667 0.209444L0.209444 3.59667C0.0794444 3.72667 0 3.91444 0 4.10222V8.89056C0 9.08556 0.0794444 9.26611 0.209444 9.40333L3.58944 12.7833C3.72667 12.9206 3.91444 13 4.10222 13H8.89056C9.08556 13 9.26611 12.9206 9.40333 12.7906L12.7833 9.41055C12.9206 9.27333 12.9928 9.09278 12.9928 8.89778V4.10222C12.9928 3.90722 12.9133 3.72667 12.7833 3.58944L9.40333 0.209444C9.27333 0.0794444 9.08556 0 8.89778 0ZM6.50014 10.3277C5.98014 10.3277 5.56125 9.90885 5.56125 9.38885C5.56125 8.86885 5.98014 8.44996 6.50014 8.44996C7.02014 8.44996 7.43903 8.86885 7.43903 9.38885C7.43903 9.90885 7.02014 10.3277 6.50014 10.3277ZM5.77778 6.5C5.77778 6.89722 6.10278 7.22222 6.5 7.22222C6.89722 7.22222 7.22222 6.89722 7.22222 6.5V3.61111C7.22222 3.21389 6.89722 2.88889 6.5 2.88889C6.10278 2.88889 5.77778 3.21389 5.77778 3.61111V6.5Z" fill="#F84960"/>
</svg>
