<svg width="13" height="22" viewBox="0 0 13 22" fill="none" xmlns="http://www.w3.org/2000/svg">
<path fill-rule="evenodd" clip-rule="evenodd" d="M11.8799 4.76823C12.4999 7.89823 10.6899 10.6982 7.99988 11.6482L7.99988 19.9982C7.99988 21.0982 7.09988 21.9982 5.99988 21.9982C4.89988 21.9982 3.99988 21.0982 3.99988 19.9982L1.99988 19.9982C0.899878 19.9982 -0.000121951 19.0982 -0.000121903 17.9982C-0.000121855 16.8982 0.899878 15.9982 1.99988 15.9982L3.99988 15.9982L3.99988 11.6482C1.66988 10.8282 -0.000121493 8.60823 -0.000121379 5.99823C-0.000121215 2.25823 3.42988 -0.68177 7.29988 0.138231C9.58988 0.618231 11.4199 2.47823 11.8799 4.76823ZM5.99988 3.99823C4.89988 3.99823 3.99988 4.89823 3.99988 5.99823C3.99988 7.09823 4.89988 7.99823 5.99988 7.99823C7.09988 7.99823 7.99988 7.09823 7.99988 5.99823C7.99988 4.89823 7.09988 3.99823 5.99988 3.99823Z" fill="#7A869A"/>
</svg>
