<svg width="18" height="18" viewBox="0 0 18 18" fill="currentColor" xmlns="http://www.w3.org/2000/svg">
<path fill-rule="evenodd" clip-rule="evenodd" d="M0 1.99501V15.9601C0 17.0574 0.9 17.9551 2 17.9551H16C17.1 17.9551 18 17.0574 18 15.9601V1.99501C18 0.897756 17.1 0 16 0H2C0.9 0 0 0.897756 0 1.99501ZM8 15.9601H3C2.45 15.9601 2 15.5112 2 14.9626V9.97506H7C7.55 9.97506 8 10.4239 8 10.9726V15.9601ZM2 7.98005H7C7.55 7.98005 8 7.53117 8 6.98254V1.99501H3C2.45 1.99501 2 2.44389 2 2.99252V7.98005ZM15 15.9601H10V10.9726C10 10.4239 10.45 9.97506 11 9.97506H16V14.9626C16 15.5112 15.55 15.9601 15 15.9601ZM11 7.98005H16V2.99252C16 2.44389 15.55 1.99501 15 1.99501H10V6.98254C10 7.53117 10.45 7.98005 11 7.98005Z" />
</svg>
