<svg width="59" height="57" viewBox="0 0 59 57" fill="none" xmlns="http://www.w3.org/2000/svg">
<ellipse cx="29.7388" cy="28.5" rx="29.2432" ry="28.5" fill="#0052CC" fill-opacity="0.1"/>
<rect x="8.70435" y="9" width="24.6259" height="24" fill="#0052CC" fill-opacity="0.2"/>
<path d="M32.9761 36.3896C32.9761 35.5889 32.7515 34.9541 32.3022 34.4854C31.8628 34.0068 31.1108 33.5674 30.0464 33.167C28.9819 32.7666 28.064 32.3711 27.2925 31.9805C26.521 31.5801 25.8569 31.126 25.3003 30.6182C24.7534 30.1006 24.3237 29.4951 24.0112 28.8018C23.7085 28.1084 23.5571 27.2832 23.5571 26.3262C23.5571 24.6758 24.0845 23.3232 25.1392 22.2686C26.1938 21.2139 27.5952 20.5986 29.3433 20.4229V17.2881H31.687V20.4668C33.4155 20.7109 34.7681 21.4336 35.7446 22.6348C36.7212 23.8262 37.2095 25.374 37.2095 27.2783H32.9761C32.9761 26.1064 32.7319 25.2324 32.2437 24.6562C31.7651 24.0703 31.1206 23.7773 30.3101 23.7773C29.5093 23.7773 28.8892 24.0068 28.4497 24.4658C28.0103 24.915 27.7905 25.54 27.7905 26.3408C27.7905 27.083 28.0054 27.6787 28.4351 28.1279C28.8647 28.5771 29.6606 29.0361 30.8228 29.5049C31.9946 29.9736 32.9565 30.418 33.7085 30.8379C34.4604 31.248 35.0952 31.7168 35.6128 32.2441C36.1304 32.7617 36.5259 33.3574 36.7993 34.0312C37.0728 34.6953 37.2095 35.4717 37.2095 36.3604C37.2095 38.0205 36.6919 39.3682 35.6567 40.4033C34.6216 41.4385 33.1958 42.0488 31.3794 42.2344V45.1494H29.0503V42.249C27.0483 42.0342 25.4956 41.3262 24.3921 40.125C23.2983 38.9141 22.7515 37.3076 22.7515 35.3057H26.9849C26.9849 36.4678 27.2583 37.3613 27.8052 37.9863C28.3618 38.6016 29.1577 38.9092 30.1929 38.9092C31.0522 38.9092 31.731 38.6846 32.229 38.2354C32.7271 37.7764 32.9761 37.1611 32.9761 36.3896Z" fill="#0052CC"/>
<path d="M14.7427 24.1299C14.7427 23.863 14.6678 23.6514 14.5181 23.4951C14.3716 23.3356 14.1209 23.1891 13.7661 23.0557C13.4113 22.9222 13.1053 22.7904 12.8481 22.6602C12.591 22.5267 12.3696 22.3753 12.1841 22.2061C12.0018 22.0335 11.8586 21.8317 11.7544 21.6006C11.6535 21.3695 11.603 21.0944 11.603 20.7754C11.603 20.2253 11.7788 19.7744 12.1304 19.4229C12.4819 19.0713 12.9491 18.8662 13.5317 18.8076V17.7627H14.313V18.8223C14.8892 18.9036 15.34 19.1445 15.6655 19.5449C15.991 19.9421 16.1538 20.458 16.1538 21.0928H14.7427C14.7427 20.7021 14.6613 20.4108 14.4985 20.2188C14.339 20.0234 14.1242 19.9258 13.854 19.9258C13.5871 19.9258 13.3804 20.0023 13.2339 20.1553C13.0874 20.305 13.0142 20.5133 13.0142 20.7803C13.0142 21.0277 13.0858 21.2262 13.229 21.376C13.3722 21.5257 13.6375 21.6787 14.0249 21.835C14.4155 21.9912 14.7362 22.1393 14.9868 22.2793C15.2375 22.416 15.4491 22.5723 15.6216 22.748C15.7941 22.9206 15.9259 23.1191 16.0171 23.3438C16.1082 23.5651 16.1538 23.8239 16.1538 24.1201C16.1538 24.6735 15.9813 25.1227 15.6362 25.4678C15.2912 25.8128 14.8159 26.0163 14.2104 26.0781V27.0498H13.4341V26.083C12.7668 26.0114 12.2492 25.7754 11.8813 25.375C11.5168 24.9714 11.3345 24.4359 11.3345 23.7686H12.7456C12.7456 24.1559 12.8368 24.4538 13.019 24.6621C13.2046 24.8672 13.4699 24.9697 13.8149 24.9697C14.1014 24.9697 14.3276 24.8949 14.4937 24.7451C14.6597 24.5921 14.7427 24.387 14.7427 24.1299Z" fill="#0052CC"/>
<path d="M45.4661 44.1948C45.4661 43.7944 45.3538 43.4771 45.1292 43.2427C44.9094 43.0034 44.5334 42.7837 44.0012 42.5835C43.469 42.3833 43.01 42.1855 42.6243 41.9902C42.2385 41.79 41.9065 41.563 41.6282 41.3091C41.3547 41.0503 41.1399 40.7476 40.9836 40.4009C40.8323 40.0542 40.7566 39.6416 40.7566 39.1631C40.7566 38.3379 41.0203 37.6616 41.5476 37.1343C42.075 36.6069 42.7756 36.2993 43.6497 36.2114V34.644H44.8215V36.2334C45.6858 36.3555 46.3621 36.7168 46.8503 37.3174C47.3386 37.9131 47.5828 38.687 47.5828 39.6392H45.4661C45.4661 39.0532 45.344 38.6162 45.0999 38.3281C44.8606 38.0352 44.5383 37.8887 44.1331 37.8887C43.7327 37.8887 43.4226 38.0034 43.2029 38.2329C42.9832 38.4575 42.8733 38.77 42.8733 39.1704C42.8733 39.5415 42.9807 39.8394 43.1956 40.064C43.4104 40.2886 43.8083 40.5181 44.3894 40.7524C44.9753 40.9868 45.4563 41.209 45.8323 41.4189C46.2083 41.624 46.5256 41.8584 46.7844 42.1221C47.0432 42.3809 47.241 42.6787 47.3777 43.0156C47.5144 43.3477 47.5828 43.7358 47.5828 44.1802C47.5828 45.0103 47.324 45.6841 46.8064 46.2017C46.2888 46.7192 45.5759 47.0244 44.6677 47.1172V48.5747H43.5032V47.1245C42.5022 47.0171 41.7258 46.6631 41.1741 46.0625C40.6272 45.457 40.3538 44.6538 40.3538 43.6528H42.4705C42.4705 44.2339 42.6072 44.6807 42.8806 44.9932C43.1589 45.3008 43.5569 45.4546 44.0745 45.4546C44.5042 45.4546 44.8435 45.3423 45.0925 45.1177C45.3416 44.8882 45.4661 44.5806 45.4661 44.1948Z" fill="#0052CC"/>
<path d="M47.1225 24.1948C47.1225 23.7944 47.0102 23.4771 46.7856 23.2427C46.5658 23.0034 46.1899 22.7837 45.6576 22.5835C45.1254 22.3833 44.6664 22.1855 44.2807 21.9902C43.8949 21.79 43.5629 21.563 43.2846 21.3091C43.0112 21.0503 42.7963 20.7476 42.6401 20.4009C42.4887 20.0542 42.413 19.6416 42.413 19.1631C42.413 18.3379 42.6767 17.6616 43.204 17.1343C43.7314 16.6069 44.4321 16.2993 45.3061 16.2114V14.644H46.478V16.2334C47.3422 16.3555 48.0185 16.7168 48.5068 17.3174C48.995 17.9131 49.2392 18.687 49.2392 19.6392H47.1225C47.1225 19.0532 47.0004 18.6162 46.7563 18.3281C46.517 18.0352 46.1948 17.8887 45.7895 17.8887C45.3891 17.8887 45.079 18.0034 44.8593 18.2329C44.6396 18.4575 44.5297 18.77 44.5297 19.1704C44.5297 19.5415 44.6371 19.8394 44.852 20.064C45.0668 20.2886 45.4648 20.5181 46.0458 20.7524C46.6318 20.9868 47.1127 21.209 47.4887 21.4189C47.8647 21.624 48.1821 21.8584 48.4408 22.1221C48.6996 22.3809 48.8974 22.6787 49.0341 23.0156C49.1708 23.3477 49.2392 23.7358 49.2392 24.1802C49.2392 25.0103 48.9804 25.6841 48.4628 26.2017C47.9452 26.7192 47.2323 27.0244 46.3241 27.1172V28.5747H45.1596V27.1245C44.1586 27.0171 43.3823 26.6631 42.8305 26.0625C42.2836 25.457 42.0102 24.6538 42.0102 23.6528H44.1269C44.1269 24.2339 44.2636 24.6807 44.537 24.9932C44.8154 25.3008 45.2133 25.4546 45.7309 25.4546C46.1606 25.4546 46.4999 25.3423 46.749 25.1177C46.998 24.8882 47.1225 24.5806 47.1225 24.1948Z" fill="#0052CC"/>
<path d="M52.795 26.8763C52.7284 25.7879 51.7693 24.9611 50.6528 25.0294L32.4584 26.143C31.3419 26.2113 30.4908 27.149 30.5574 28.2373C30.624 29.3256 31.5831 30.1525 32.6996 30.0842L48.8724 29.0943L49.8373 44.8591C49.9039 45.9475 50.863 46.7743 51.9795 46.706C53.096 46.6377 53.9471 45.7 53.8805 44.6117L52.795 26.8763ZM28.6884 54.3059L52.2882 28.3059L49.2586 25.6941L25.6588 51.6941L28.6884 54.3059Z" fill="#0052CC" fill-opacity="0.1"/>
</svg>
