<svg width="20" height="25" viewBox="0 0 20 25" fill="none" xmlns="http://www.w3.org/2000/svg">
<rect width="16.1194" height="19.8171" fill="#0052CC" fill-opacity="0.1"/>
<rect x="4.47754" width="4.1791" height="19.8171" fill="#0052CC" fill-opacity="0.2"/>
<rect x="14.3284" y="9.14624" width="4.17911" height="10.6707" fill="#0052CC" fill-opacity="0.2"/>
<path d="M10.1493 3.65845L18.6803 19.6645H1.61833L10.1493 3.65845Z" fill="#0052CC" fill-opacity="0.5"/>
<path fill-rule="evenodd" clip-rule="evenodd" d="M4.16525 8.04543L7.59595 6.48869C7.8459 6.37356 8.13996 6.37356 8.38991 6.48869L11.8206 8.04543C12.1735 8.20561 12.4038 8.56601 12.4038 8.96145V11.3141C12.4038 14.0922 10.5218 16.6901 7.99293 17.3208C5.46401 16.6901 3.58203 14.0922 3.58203 11.3141V8.96145C3.58203 8.56601 3.81238 8.20561 4.16525 8.04543ZM5.39539 12.6656L6.66475 13.962C6.85589 14.1573 7.16955 14.1573 7.35579 13.962L10.5855 10.6634C10.7767 10.4681 10.7767 10.1528 10.5855 9.95757C10.3944 9.76235 10.0856 9.76235 9.89451 9.95757L7.01272 12.9009L6.08643 11.9598C5.89529 11.7646 5.58653 11.7646 5.39539 11.9598C5.30362 12.0533 5.25204 12.1803 5.25204 12.3127C5.25204 12.4451 5.30362 12.5721 5.39539 12.6656Z" fill="#0052CC"/>
</svg>
